<svg width="157" height="30" viewBox="0 0 157 30" fill="none" xmlns="http://www.w3.org/2000/svg">
<mask id="mask0_184_254" style="mask-type:luminance" maskUnits="userSpaceOnUse" x="151" y="24" width="6" height="6">
<path d="M151.771 24.8594H156.5V30.0002H151.771V24.8594Z" fill="white"/>
</mask>
<g mask="url(#mask0_184_254)">
<path d="M154.066 29.6399C152.799 29.6399 151.771 28.6183 151.771 27.3619C151.771 26.1035 152.799 25.084 154.066 25.084C155.334 25.084 156.36 26.1035 156.36 27.3619C156.36 28.6183 155.334 29.6399 154.066 29.6399ZM154.066 29.2259C155.102 29.2259 155.944 28.3897 155.944 27.3619C155.944 26.3321 155.102 25.498 154.066 25.498C153.029 25.498 152.188 26.3321 152.188 27.3619C152.188 28.3897 153.029 29.2259 154.066 29.2259ZM154.562 27.0015C154.548 26.9438 154.527 26.8923 154.503 26.845C154.476 26.7955 154.441 26.7543 154.4 26.7193C154.361 26.6843 154.312 26.6575 154.257 26.6369C154.203 26.6184 154.14 26.6081 154.066 26.6081C153.961 26.6081 153.869 26.6287 153.793 26.672C153.715 26.7152 153.653 26.7708 153.604 26.8429C153.555 26.915 153.52 26.9933 153.497 27.0839C153.473 27.1745 153.46 27.2672 153.46 27.3619C153.46 27.4546 153.473 27.5473 153.497 27.6379C153.52 27.7285 153.555 27.8089 153.604 27.881C153.653 27.951 153.715 28.0087 153.793 28.0498C153.869 28.0931 153.961 28.1137 154.066 28.1137C154.144 28.1137 154.213 28.1013 154.273 28.0746C154.333 28.0478 154.384 28.0107 154.427 27.9633C154.47 27.918 154.503 27.8624 154.527 27.7986C154.55 27.7368 154.566 27.6688 154.575 27.5967H154.915C154.907 27.7162 154.881 27.8233 154.837 27.9221C154.794 28.019 154.735 28.1034 154.661 28.1734C154.587 28.2455 154.499 28.2991 154.398 28.3382C154.298 28.3773 154.189 28.3979 154.066 28.3979C153.918 28.3979 153.784 28.3691 153.665 28.3155C153.548 28.262 153.448 28.1858 153.366 28.0931C153.286 27.9984 153.222 27.8892 153.179 27.7636C153.136 27.6379 153.113 27.504 153.113 27.3619C153.113 27.2219 153.136 27.088 153.179 26.9624C153.222 26.8367 153.286 26.7276 153.366 26.6328C153.448 26.5401 153.548 26.4639 153.665 26.4083C153.784 26.3548 153.918 26.3259 154.066 26.3259C154.179 26.3259 154.283 26.3404 154.382 26.3713C154.48 26.4021 154.566 26.4475 154.642 26.5051C154.718 26.5628 154.78 26.6328 154.825 26.7173C154.872 26.7997 154.901 26.8944 154.911 27.0015H154.562Z" fill="black"/>
</g>
<path d="M15.7131 0C18.8493 0 21.7823 0.624067 24.5142 1.87014C24.3767 2.09052 24.2269 2.54158 24.0627 3.22125C23.9026 3.89681 23.7692 4.5044 23.6604 5.04196L23.4223 5.12435C22.3919 3.98743 21.2159 3.1018 19.892 2.46331C18.5661 1.82689 17.1745 1.50765 15.7131 1.50765C13.9562 1.50765 12.3881 1.80011 11.0088 2.38093C9.62951 2.9638 8.45137 3.81237 7.47849 4.92662C6.50355 6.03676 5.7585 7.40641 5.24537 9.03764C4.73635 10.6647 4.48184 12.506 4.48184 14.5657C4.48184 16.6583 4.73635 18.5119 5.24537 20.1267C5.7585 21.7414 6.50355 23.1069 7.47849 24.2212C8.45137 25.3313 9.62951 26.1778 11.0088 26.7587C12.3881 27.3415 13.9562 27.6319 15.7131 27.6319C17.037 27.6319 18.3526 27.3745 19.6621 26.8575C20.9757 26.3426 22.4042 25.4734 23.9477 24.2542L24.1119 24.4189L23.7425 26.8163C23.254 27.1747 22.6854 27.496 22.0348 27.7802C21.3883 28.0603 20.6925 28.3034 19.9495 28.5052C19.2044 28.7071 18.4327 28.8636 17.6342 28.9748C16.8399 29.084 16.0661 29.1396 15.3108 29.1396C13.1967 29.1396 11.2346 28.8142 9.42426 28.1674C7.6119 27.5145 6.04995 26.5692 4.73635 25.3334C3.42686 24.0976 2.3924 22.5941 1.63298 20.8187C0.877659 19.0392 0.5 17.0249 0.5 14.7716C0.5 12.4649 0.857134 10.397 1.57551 8.56804C2.29183 6.73498 3.31192 5.17996 4.63783 3.90505C5.96169 2.6322 7.55648 1.66212 9.42426 0.996859C11.29 0.333659 13.3856 0 15.7131 0Z" fill="#BE6E6E"/>
<path d="M30.8428 18.8824C30.8428 21.7617 31.3806 23.9532 32.4602 25.4567C33.5439 26.9623 35.0977 27.7141 37.1235 27.7141C39.1801 27.7141 40.7441 26.9623 41.8114 25.4567C42.8787 23.9532 43.4123 21.7617 43.4123 18.8824C43.4123 16.0319 42.8828 13.8487 41.8278 12.3328C40.7769 10.8128 39.1944 10.0507 37.0824 10.0507C35.0566 10.0507 33.5111 10.8045 32.4438 12.3081C31.3765 13.8136 30.8428 16.0051 30.8428 18.8824ZM37.0824 8.74902C38.4884 8.74902 39.7999 8.97558 41.015 9.42458C42.2342 9.86946 43.283 10.5203 44.1594 11.3771C45.04 12.2298 45.7296 13.2864 46.2283 14.5489C46.7312 15.8135 46.9837 17.2573 46.9837 18.8824C46.9837 20.563 46.7251 22.0357 46.2119 23.2982C45.6968 24.5628 44.9927 25.6215 44.102 26.4783C43.2091 27.331 42.1665 27.9674 40.974 28.3896C39.7856 28.8057 38.5151 29.0157 37.1645 29.0157C35.7298 29.0157 34.4101 28.7933 33.2073 28.3484C32.0086 27.8994 30.968 27.2527 30.0875 26.4124C29.2111 25.572 28.5215 24.534 28.0186 23.2982C27.5198 22.0624 27.2715 20.6743 27.2715 19.1295C27.2715 17.0658 27.5876 15.3625 28.2238 14.0217C28.8581 12.6767 29.6626 11.6119 30.6376 10.8251C31.6105 10.0404 32.6737 9.49873 33.8231 9.20214C34.9725 8.90144 36.0582 8.74902 37.0824 8.74902Z" fill="#BE6E6E"/>
<path d="M66.7436 0C68.6914 0 70.5037 0.177128 72.1786 0.527264C73.8534 0.87946 75.4749 1.48911 77.0471 2.35621C76.8275 2.76402 76.6304 3.28716 76.456 3.92977C76.2795 4.56825 76.1645 5.08933 76.1112 5.49508H75.6268C74.461 4.16662 73.1063 3.16976 71.5628 2.5045C70.0235 1.84131 68.404 1.50765 66.7025 1.50765C64.8635 1.50765 63.2133 1.80011 61.7519 2.38093C60.2946 2.9638 59.0529 3.81237 58.0246 4.92662C56.9942 6.03676 56.204 7.40641 55.6519 9.03764C55.0977 10.6647 54.8227 12.506 54.8227 14.5657C54.8227 16.5759 55.0977 18.376 55.6519 19.9619C56.204 21.5499 57.0004 22.901 58.041 24.0152C59.0795 25.1254 60.3439 25.9719 61.834 26.5527C63.3221 27.1356 65.0133 27.426 66.9078 27.426C68.0674 27.426 69.264 27.3189 70.4955 27.1047C71.727 26.8864 72.6917 26.5589 73.3937 26.1243C73.3937 25.9925 73.406 25.5064 73.4347 24.6661C73.4614 23.8216 73.4758 22.7053 73.4758 21.3212C73.4758 20.9423 73.4758 20.5777 73.4758 20.2255C73.4758 19.8754 73.4614 19.5479 73.4347 19.2451L73.2705 15.6284C73.9478 15.7664 74.5964 15.8344 75.2163 15.8344C75.5447 15.8344 75.8484 15.822 76.1276 15.7932C76.4108 15.7664 76.69 15.7108 76.965 15.6284C76.9096 16.7654 76.8685 17.9517 76.8418 19.1875C76.8131 20.4232 76.8008 21.8959 76.8008 23.6033L76.8418 27.1871C76.0311 27.4569 75.1526 27.7143 74.2064 27.9615C73.2582 28.2045 72.3181 28.4105 71.3822 28.5876C70.4504 28.7627 69.5596 28.8965 68.7058 28.9913C67.856 29.0902 67.1069 29.1396 66.4562 29.1396C63.9973 29.1396 61.8012 28.8203 59.8636 28.1839C57.9301 27.5475 56.2943 26.6062 54.954 25.3581C53.6178 24.1059 52.5978 22.5797 51.8917 20.7775C51.1897 18.9712 50.8408 16.9013 50.8408 14.5657C50.8408 12.2877 51.2123 10.2466 51.9574 8.44446C52.7004 6.63817 53.7636 5.11199 55.1429 3.86386C56.5221 2.61778 58.1908 1.66212 60.1509 0.996859C62.109 0.333659 64.3073 0 66.7436 0Z" fill="black"/>
<path d="M83.1651 15.464C83.1651 14.4054 83.1569 13.3529 83.1405 12.3087C83.1282 11.2665 83.1097 10.214 83.083 9.15332C83.8425 9.29132 84.4131 9.35928 84.7907 9.35928C85.0309 9.35928 85.2854 9.34075 85.5542 9.30161C85.8272 9.25836 86.1248 9.20893 86.4491 9.15332C86.3178 10.8669 86.2152 12.7165 86.1454 14.6978C86.0797 16.6751 86.0468 18.6008 86.0468 20.473C86.0468 20.7161 86.051 21.0477 86.0633 21.4699C86.0797 21.888 86.1207 22.3267 86.1864 22.788C86.2562 23.2494 86.3711 23.6984 86.5312 24.1309C86.6954 24.5655 86.9253 24.9465 87.2209 25.2761C87.5985 25.7374 88.0911 26.1246 88.6987 26.4377C89.3103 26.7466 90.0082 26.8991 90.7922 26.8991C91.9252 26.8991 92.8283 26.6828 93.5015 26.2482C94.1788 25.8157 94.7104 25.2884 95.0943 24.6664C95.3344 24.2545 95.5212 23.8549 95.6525 23.4636C95.788 23.0682 95.8988 22.6068 95.9809 22.0795C96.063 21.5481 96.1082 20.9158 96.1205 20.1847C96.1369 19.4556 96.1451 18.5329 96.1451 17.4165C96.1451 15.3569 96.1369 13.5753 96.1205 12.0698C96.1082 10.56 96.0897 9.5879 96.063 9.15332C96.412 9.23571 96.7157 9.29132 96.9743 9.31809C97.2309 9.34692 97.4957 9.35928 97.7707 9.35928C98.0663 9.35928 98.3413 9.34692 98.5999 9.31809C98.8565 9.29132 99.1336 9.23571 99.4291 9.15332C99.347 10.455 99.2772 12.1192 99.2239 14.1459C99.1746 16.1684 99.15 18.574 99.15 21.3628C99.15 22.9405 99.1623 24.3039 99.191 25.4573C99.2177 26.6107 99.2567 27.6632 99.306 28.6127C98.6328 28.4747 98.1073 28.4067 97.7297 28.4067C97.352 28.4067 96.8225 28.4747 96.1451 28.6127C96.1718 28.3387 96.1903 28.0071 96.2026 27.6158C96.219 27.2204 96.2272 26.8743 96.2272 26.5778V25.1113H96.1451C95.4432 26.413 94.538 27.3913 93.4276 28.0442C92.3213 28.6909 91.1165 29.0163 89.8152 29.0163C87.7073 29.0163 86.051 28.452 84.8482 27.3275C83.6434 26.2029 83.042 24.4852 83.042 22.1784C83.042 21.7726 83.0461 21.2516 83.0584 20.6131C83.0748 19.9767 83.0871 19.3341 83.0995 18.6853C83.1159 18.0324 83.1282 17.4145 83.1405 16.8316C83.1569 16.2446 83.1651 15.7894 83.1651 15.464Z" fill="black"/>
<path d="M107.618 17.0946C108.029 17.0946 108.497 17.1029 109.022 17.1193C109.548 17.1317 110.073 17.1441 110.599 17.1605C111.128 17.1729 111.602 17.1832 112.019 17.1935C112.44 17.2058 112.733 17.21 112.897 17.21C113.246 17.21 113.653 17.2058 114.113 17.1935C114.572 17.1832 115.044 17.1729 115.533 17.1605C116.019 17.1441 116.498 17.1317 116.97 17.1193C117.446 17.1029 117.885 17.0946 118.291 17.0946C118.236 12.3987 116.571 10.0507 113.3 10.0507C111.734 10.0507 110.451 10.6768 109.449 11.9291C108.448 13.1772 107.836 14.8991 107.618 17.0946ZM113.218 8.74902C114.515 8.74902 115.683 8.94675 116.723 9.3422C117.768 9.73352 118.646 10.2958 119.359 11.0311C120.075 11.7623 120.631 12.6438 121.025 13.6756C121.419 14.7034 121.616 15.8424 121.616 17.0946V17.7867L121.534 18.6352C120.319 18.6085 119.055 18.5837 117.741 18.5611C116.428 18.5343 115.042 18.5199 113.587 18.5199C112.612 18.5199 111.617 18.5343 110.599 18.5611C109.585 18.5837 108.567 18.6085 107.545 18.6352C107.516 18.7464 107.503 18.9112 107.503 19.1295C107.503 19.3437 107.503 19.4797 107.503 19.5332C107.503 22.0542 108.156 23.982 109.466 25.3167C110.779 26.6472 112.448 27.3104 114.474 27.3104C115.502 27.3104 116.584 27.0467 117.717 26.5195C118.854 25.9881 119.814 25.2878 120.598 24.4187L120.804 24.5422L120.557 26.5359C119.506 27.3495 118.378 27.9674 117.175 28.3896C115.97 28.8057 114.827 29.0157 113.743 29.0157C112.341 29.0157 111.038 28.7789 109.835 28.3072C108.63 27.8294 107.596 27.1662 106.732 26.3135C105.866 25.4567 105.182 24.4392 104.679 23.257C104.18 22.0769 103.932 20.7937 103.932 19.4096C103.932 16.0483 104.741 13.4326 106.362 11.5584C107.988 9.68615 110.272 8.74902 113.218 8.74902Z" fill="black"/>
<path d="M131.344 8.74902C131.857 8.74902 132.358 8.80463 132.847 8.91379C133.333 9.01883 133.779 9.14035 134.185 9.27629C134.589 9.41428 134.934 9.54404 135.219 9.6635C135.503 9.78502 135.714 9.85916 135.852 9.88594C135.577 10.3761 135.353 10.9281 135.178 11.5419C135.002 12.1515 134.901 12.5634 134.875 12.7777H134.39C134.115 11.9929 133.653 11.3771 133.003 10.9322C132.356 10.4832 131.628 10.2567 130.819 10.2567C129.871 10.2567 129.058 10.5697 128.38 11.1959C127.707 11.8179 127.371 12.6438 127.371 13.6756C127.371 14.5716 127.646 15.2904 128.2 15.8341C128.758 16.3738 129.616 16.8063 130.778 17.1358C131.615 17.3789 132.412 17.6219 133.167 17.869C133.926 18.1121 134.583 18.421 135.137 18.8C135.696 19.179 136.135 19.6692 136.459 20.2664C136.781 20.8658 136.943 21.6258 136.943 22.5485C136.943 23.3621 136.767 24.1612 136.418 24.9459C136.067 25.7327 135.572 26.4247 134.932 27.022C134.296 27.6214 133.524 28.1013 132.617 28.4638C131.714 28.8304 130.708 29.0157 129.604 29.0157C128.465 29.0157 127.496 28.8922 126.697 28.645C125.903 28.404 125.142 28.0807 124.415 27.6729C124.628 27.1847 124.809 26.6492 124.957 26.0664C125.105 25.4855 125.179 25.0283 125.179 24.6988H125.671C126.102 25.4897 126.738 26.157 127.576 26.7007C128.413 27.2403 129.304 27.5081 130.252 27.5081C131.385 27.5081 132.323 27.1847 133.068 26.5359C133.811 25.883 134.185 24.9871 134.185 23.8502C134.185 22.9831 133.885 22.2849 133.29 21.7576C132.699 21.2262 131.792 20.7834 130.573 20.4312C129.68 20.1841 128.869 19.9266 128.142 19.6568C127.414 19.3829 126.784 19.043 126.254 18.6352C125.729 18.2295 125.322 17.729 125.039 17.1358C124.754 16.5385 124.612 15.7909 124.612 14.8949C124.612 13.0227 125.228 11.5316 126.459 10.4214C127.691 9.30718 129.318 8.74902 131.344 8.74902Z" fill="black"/>
<path d="M145.134 3.69922H145.339C145.257 4.75993 145.193 5.74649 145.15 6.65684C145.111 7.56308 145.064 8.58877 145.011 9.7298C145.284 9.7298 145.61 9.72569 145.988 9.71333C146.365 9.69685 146.747 9.68449 147.137 9.67214C147.531 9.65566 147.917 9.6433 148.295 9.63094C148.676 9.61447 149.017 9.60623 149.313 9.60623C149.284 9.68861 149.272 9.86574 149.272 10.1335C149.272 10.4033 149.272 10.566 149.272 10.6196C149.272 10.9985 149.284 11.2292 149.313 11.3116C148.853 11.2848 148.323 11.2663 147.728 11.2539C147.137 11.2375 146.704 11.2292 146.431 11.2292H145.011C144.988 11.532 144.955 12.1252 144.912 13.0087C144.873 13.8882 144.84 14.8706 144.814 15.9581C144.785 17.0415 144.764 18.1125 144.748 19.1711C144.736 20.2257 144.731 21.066 144.731 21.6921C144.731 22.4789 144.758 23.2307 144.814 23.9495C144.867 24.6703 145.002 25.3088 145.216 25.869C145.433 26.4251 145.76 26.8721 146.193 27.2119C146.624 27.5476 147.219 27.7145 147.974 27.7145C148.27 27.7145 148.592 27.6877 148.943 27.6321C149.298 27.5785 149.596 27.5085 149.838 27.4261V28.4065C149.323 28.598 148.795 28.7463 148.254 28.8514C147.716 28.9605 147.205 29.0161 146.718 29.0161C143.389 29.0161 141.727 27.2943 141.727 23.8506C141.727 22.9279 141.768 21.3543 141.85 19.1299C141.932 16.9055 141.985 14.2733 142.014 11.2292C141.308 11.2292 140.725 11.2375 140.265 11.2539C139.81 11.2663 139.473 11.2848 139.255 11.3116C139.309 11.0974 139.337 10.9306 139.337 10.809C139.337 10.6834 139.337 10.5413 139.337 10.3806C139.337 10.2447 139.329 10.1067 139.313 9.96872C139.301 9.83279 139.282 9.69685 139.255 9.56503C139.982 9.62064 140.557 9.65566 140.979 9.67214C141.4 9.68449 141.718 9.68861 141.932 9.68861L141.768 5.12448L145.134 3.69922Z" fill="black"/>
</svg>
